<?xml version="1.0" encoding="UTF-8"?>
<svg width="300px" height="46px" viewBox="0 0 300 46" version="1.1" xmlns="http://www.w3.org/2000/svg" xmlns:xlink="http://www.w3.org/1999/xlink">
    <!-- Generator: sketchtool 41.2 (35397) - http://www.bohemiancoding.com/sketch -->
    <title>EC00E957-201F-4CB4-B59A-5540B74096D1</title>
    <desc>Created with sketchtool.</desc>
    <defs></defs>
    <g id="Symbols" stroke="none" stroke-width="1" fill="none" fill-rule="evenodd">
        <g id="Logo-1">
            <g id="Group">
                <g id="logomark">
                    <g id="Group-2">
                        <path d="M6.507697,36.0496633 C6.507697,41.4256586 10.8658201,45.7842396 16.2422732,45.7842396 C21.6182685,45.7842396 25.9768495,41.4256586 25.9768495,36.0496633 L19.4868267,36.0496633 C19.4868267,37.8418144 18.0344243,39.2946747 16.2422732,39.2946747 C14.4501222,39.2946747 12.9972619,37.8418144 12.9972619,36.0496633 L6.507697,36.0496633 Z" id="Fill-1" fill="#A0E100"></path>
                        <path d="M32.4664143,36.0496633 C32.4664143,41.4256586 36.8245374,45.7842396 42.2009906,45.7842396 C47.5769859,45.7842396 51.9355668,41.4256586 51.9355668,36.0496633 L45.4473756,36.0496633 C45.4473756,36.0496633 45.4455441,36.0505791 45.4455441,36.0514948 C45.4450862,37.8427301 43.9922259,39.2946747 42.2009906,39.2946747 C40.4092974,39.2946747 38.956895,37.8427301 38.9559792,36.0514948 C38.9559792,36.0505791 38.9555213,36.0496633 38.9555213,36.0496633 L32.4664143,36.0496633 Z" id="Fill-3" fill="#A0E100"></path>
                        <path d="M19.4868725,0.350325695 C14.1075705,0.350325695 9.74634381,4.71155242 9.74634381,10.0908544 C9.74634381,15.4704916 14.1074479,19.8313831 19.4868725,19.8313831 L51.9356126,19.8313831 C53.7240344,19.8313831 55.1742136,21.281633 55.1742136,23.070442 C55.1742136,24.8588285 53.7239991,26.309043 51.9356126,26.309043 L0.0181779246,26.309043 L0.0181779246,32.8109707 L51.9356126,32.8109707 C57.3149146,32.8109707 61.6761413,28.449744 61.6761413,23.070442 C61.6761413,17.6907884 57.3150208,13.3294554 51.9356126,13.3294554 L19.4868725,13.3294554 C17.6982924,13.3294554 16.2482715,11.8795052 16.2482715,10.0908544 C16.2482715,8.30246793 17.698486,6.85225338 19.4868725,6.85225338 L64.955036,6.85225338 L64.955036,0.350325695 L19.4868725,0.350325695 Z" id="Stroke-4" fill="#041E42"></path>
                    </g>
                </g>
                <path d="M82.9050726,27.3967423 C82.3647715,26.1503868 83.0296165,25.2781212 84.3176392,24.9456987 L86.1038378,24.5303995 C87.2673166,24.2396443 87.8900364,24.738278 88.5548814,25.8179643 C89.5104816,27.355075 91.3383475,28.3935519 93.7889332,28.3935519 C96.6136087,28.3935519 98.4831418,27.1471965 98.4831418,25.2364539 C98.4831418,23.7826778 97.3617882,22.619657 95.1598326,21.8719353 L91.3795569,20.500578 C87.9317037,19.3792244 83.6944615,16.8036369 83.6527942,12.3168489 C83.6527942,6.99946252 88.2641262,3.67661116 93.9551444,3.67661116 C98.4831418,3.67661116 101.681907,5.6702304 103.260227,8.99399752 C103.883405,10.1986857 103.302352,11.153828 102.055997,11.5279178 L100.393884,11.9848843 C99.2308635,12.3168489 98.5248091,11.8603403 97.8182968,10.8635307 C97.071033,9.61717523 95.7830103,8.95233023 94.0380211,8.95233023 C91.9615252,8.95233023 90.1748687,9.99080713 90.1748687,11.9015497 C90.1748687,12.9400266 90.6318352,14.0618381 93.2074228,15.0174383 L96.9876985,16.3883377 C102.679175,18.2990802 104.797338,21.2904248 104.880672,24.9456987 C104.880672,30.6367169 100.020252,33.6697288 93.8306005,33.6697288 C88.3886702,33.6697288 84.4421832,31.2598947 82.9050726,27.3967423" id="Fill-5" fill="#00043F"></path>
                <path d="M107.694817,24.1566302 L107.694817,13.8538222 C107.694817,12.5662573 108.400871,11.8602029 109.688436,11.8602029 L112.139479,11.8602029 C113.427502,11.8602029 114.133556,12.5662573 114.133556,13.8538222 L114.133556,23.6996638 C114.133556,26.6905505 115.296577,28.4767491 117.498533,28.4767491 C119.658821,28.4767491 121.984863,26.7317599 121.984863,22.7440636 L121.984863,13.8538222 C121.984863,12.5662573 122.691375,11.8602029 123.97894,11.8602029 L126.388317,11.8602029 C127.675881,11.8602029 128.424061,12.5662573 128.424061,13.8538222 L128.424061,31.2185479 C128.424061,32.5065706 127.675881,33.212625 126.388317,33.212625 L123.97894,33.212625 C122.691375,33.212625 121.984863,32.5065706 121.984863,31.2185479 L121.984863,29.8476485 C120.904719,32.2570248 118.661554,33.6695915 115.463246,33.6695915 C109.77177,33.6695915 107.694817,29.1828035 107.694817,24.1566302" id="Fill-6" fill="#00043F"></path>
                <path d="M149.206328,22.536185 C149.206328,19.2545431 147.254376,16.5544116 143.888942,16.5544116 C140.607758,16.5544116 138.447469,19.1299991 138.447469,22.536185 C138.447469,25.9428288 140.607758,28.5184164 143.888942,28.5184164 C147.254376,28.5184164 149.206328,25.8594943 149.206328,22.536185 M132.091606,40.5240885 L132.091606,13.8538222 C132.091606,12.5662573 132.79766,11.8602029 134.085225,11.8602029 L136.536269,11.8602029 C137.824292,11.8602029 138.530346,12.5662573 138.530346,13.8538222 L138.530346,14.8515475 C140.067457,12.4833806 142.55971,11.4032365 145.384843,11.4032365 C151.366616,11.4032365 155.645068,16.2636563 155.645068,22.536185 C155.645068,28.8508389 151.366616,33.6695915 145.384843,33.6695915 C142.55971,33.6695915 140.067457,32.5894473 138.530346,30.180071 L138.530346,40.5240885 C138.530346,41.8116533 137.824292,42.5177077 136.536269,42.5177077 L134.085225,42.5177077 C132.79766,42.5177077 132.091606,41.8116533 132.091606,40.5240885" id="Fill-7" fill="#00043F"></path>
                <path d="M185.420554,31.218319 L185.420554,5.17168823 C185.420554,3.88412339 186.126609,3.17806899 187.414631,3.17806899 L189.824008,3.17806899 C191.111573,3.17806899 191.859294,3.88412339 191.859294,5.17168823 L191.859294,31.218319 C191.859294,32.5063417 191.111573,33.2123961 189.824008,33.2123961 L187.414631,33.2123961 C186.126609,33.2123961 185.420554,32.5063417 185.420554,31.218319" id="Fill-8" fill="#00043F"></path>
                <path d="M199.158715,40.1916202 L202.648236,31.7583453 L194.755262,14.228324 C194.132084,12.8569667 194.796929,11.8601571 196.292373,11.8601571 L199.117048,11.8601571 C200.280527,11.8601571 201.069916,12.3587909 201.443548,13.4801445 L205.805334,25.0705174 L210.208787,13.4801445 C210.624086,12.3587909 211.413475,11.8601571 212.534829,11.8601571 L215.234961,11.8601571 C216.730862,11.8601571 217.354039,12.8152995 216.772071,14.228324 L205.099279,40.9810092 C204.642313,42.0606955 203.894591,42.5176619 202.77278,42.5176619 L200.695826,42.5176619 C199.200383,42.5176619 198.577205,41.5620617 199.158715,40.1916202" id="Fill-9" fill="#00043F"></path>
                <path d="M217.963755,22.6609121 C217.963755,16.4295929 222.740841,11.4029617 230.259725,11.4029617 C232.295469,11.4029617 234.746513,11.8603861 237.031345,13.1896182 C238.152699,13.8956726 238.194366,14.9758168 237.404977,16.0142937 L236.74059,16.8453499 C235.951201,17.8421595 235.120145,17.8838268 233.915915,17.3435258 C232.544557,16.6791387 231.215325,16.596262 230.633815,16.596262 C227.01975,16.596262 224.402495,19.0468477 224.402495,22.5363682 C224.402495,26.0258887 227.01975,28.4764744 230.633815,28.4764744 C231.215325,28.4764744 232.544557,28.3935977 233.915915,27.7292106 C235.120145,27.1889095 235.992868,27.2305768 236.74059,28.2278443 L237.404977,29.0584427 C238.194366,30.0969196 238.028155,31.3016077 236.657255,32.0493294 C234.538634,33.2540176 232.212593,33.6697746 230.259725,33.6697746 C222.824175,33.6697746 217.963755,28.7672296 217.963755,22.6609121" id="Fill-10" fill="#00043F"></path>
                <path d="M256.628659,22.536185 C256.628659,19.1299991 254.468371,16.5544116 251.187186,16.5544116 C247.82221,16.5544116 245.8698,19.2545431 245.8698,22.536185 C245.8698,25.8594943 247.82221,28.5184164 251.187186,28.5184164 C254.468371,28.5184164 256.628659,25.9428288 256.628659,22.536185 M239.430602,22.536185 C239.430602,16.2636563 243.709054,11.4032365 249.691285,11.4032365 C252.515961,11.4032365 255.008672,12.4833806 256.545782,14.8927569 L256.545782,13.8538222 C256.545782,12.5662573 257.251837,11.8602029 258.539401,11.8602029 L260.990903,11.8602029 C262.278468,11.8602029 262.984522,12.5662573 262.984522,13.8538222 L262.984522,31.2185479 C262.984522,32.5065706 262.278468,33.212625 260.990903,33.212625 L258.539401,33.212625 C257.251837,33.212625 256.545782,32.5065706 256.545782,31.2185479 L256.545782,30.2212804 C255.008672,32.5894473 252.515961,33.6695915 249.691285,33.6695915 C243.709054,33.6695915 239.430602,28.8508389 239.430602,22.536185" id="Fill-11" fill="#00043F"></path>
                <path d="M266.652067,31.218319 L266.652067,13.8540511 C266.652067,12.5664863 267.358122,11.8604319 268.646144,11.8604319 L270.930977,11.8604319 C272.218999,11.8604319 272.925054,12.5664863 272.925054,13.8540511 L272.925054,16.5125153 C273.631108,12.6076957 276.622453,11.4030075 278.449861,11.4030075 L279.156373,11.4446748 C280.153641,11.5280094 280.360603,12.3169404 280.360603,13.1479967 L280.360603,16.0560067 C280.360603,17.2190276 279.779551,17.7176614 278.907285,17.5931174 C278.533195,17.5514501 278.200773,17.5097828 277.86835,17.5097828 C275.376097,17.5097828 273.090807,19.130228 273.090807,24.4888238 L273.090807,31.218319 C273.090807,32.5063417 272.384753,33.2123961 271.097188,33.2123961 L268.646144,33.2123961 C267.358122,33.2123961 266.652067,32.5063417 266.652067,31.218319" id="Fill-12" fill="#00043F"></path>
                <path d="M285.363654,26.1087653 L285.363654,16.6374714 L284.028011,16.6374714 C283.363624,16.6374714 282.948325,16.2638395 282.948325,15.5989945 L282.948325,12.898863 C282.948325,12.234018 283.363624,11.8603861 284.028011,11.8603861 L285.861829,11.8603861 L286.567884,7.53980934 C286.734095,6.66754369 287.316063,6.21057722 288.188329,6.21057722 L290.224073,6.21057722 C291.179216,6.21057722 291.67785,6.75087825 291.67785,7.6643533 L291.67785,11.8603861 L296.496144,11.8603861 C297.161447,11.8603861 297.535537,12.234018 297.535537,12.898863 L297.535537,15.5989945 C297.535537,16.2638395 297.161447,16.6374714 296.496144,16.6374714 L291.67785,16.6374714 L291.67785,26.3166439 C291.67785,27.8954218 292.467239,28.5185995 293.422381,28.5185995 C294.502525,28.5185995 295.208579,27.6875433 295.208579,26.5657318 C295.208579,26.3583112 295.208579,26.1087653 295.16737,25.8180101 C295.084035,25.0707463 295.333581,24.6961987 296.039636,24.6961987 L298.573556,24.6961987 C299.113857,24.6961987 299.570366,24.9040772 299.737035,25.5272549 C299.902788,26.1504326 299.986123,26.8152776 299.986123,27.1472422 C299.986123,31.7585742 296.704481,33.6697746 292.84087,33.6697746 C289.226348,33.6697746 285.363654,32.00812 285.363654,26.1087653" id="Fill-13" fill="#00043F"></path>
                <path d="M175.870871,22.536185 C175.870871,19.2545431 173.918919,16.5544116 170.553485,16.5544116 C167.2723,16.5544116 165.112012,19.1299991 165.112012,22.536185 C165.112012,25.9428288 167.2723,28.5184164 170.553485,28.5184164 C173.918919,28.5184164 175.870871,25.8594943 175.870871,22.536185 M158.756149,40.5240885 L158.756149,13.8538222 C158.756149,12.5662573 159.462203,11.8602029 160.749768,11.8602029 L163.200812,11.8602029 C164.488834,11.8602029 165.194889,12.5662573 165.194889,13.8538222 L165.194889,14.8515475 C166.731999,12.4833806 169.224252,11.4032365 172.049386,11.4032365 C178.031159,11.4032365 182.309611,16.2636563 182.309611,22.536185 C182.309611,28.8508389 178.031159,33.6695915 172.049386,33.6695915 C169.224252,33.6695915 166.731999,32.5894473 165.194889,30.180071 L165.194889,40.5240885 C165.194889,41.8116533 164.488834,42.5177077 163.200812,42.5177077 L160.749768,42.5177077 C159.462203,42.5177077 158.756149,41.8116533 158.756149,40.5240885" id="Fill-14" fill="#00043F"></path>
            </g>
        </g>
    </g>
</svg>